<?xml version="1.0" encoding="iso-8859-1"?>
<!-- Generator: Adobe Illustrator 18.0.0, SVG Export Plug-In . SVG Version: 6.00 Build 0)  -->
<!DOCTYPE svg PUBLIC "-//W3C//DTD SVG 1.1//EN" "http://www.w3.org/Graphics/SVG/1.1/DTD/svg11.dtd">
<svg version="1.1" id="Capa_1" xmlns="http://www.w3.org/2000/svg" xmlns:xlink="http://www.w3.org/1999/xlink" x="0px" y="0px"
	 viewBox="0 0 489.938 489.938" style="enable-background:new 0 0 489.938 489.938;" xml:space="preserve">
<g>
	<path d="M474.316,233.794L206.412,77.431c-9.752-5.658-22.413-5.609-32.097,0.24c-4.831,2.912-8.648,7.035-11.273,11.799
		l27.864,16.271l-0.064-1.582l267.776,157.322l-149.425,40.119L204.43,414.868c-0.16,0.178-0.352,0.193-0.415,0.193l-3.584-84.353
		l-17.199,4.604l-13.492,14.594l2.849,65.969c0.558,12.707,8.63,23.77,20.601,28.182c3.47,1.279,7.113,1.936,10.825,1.936
		c8.725,0,17.135-3.678,23.098-10.105l98.878-106.889l140.586-37.659c12.309-3.277,21.39-13.571,23.084-26.216
		C491.336,252.515,485.31,240.22,474.316,233.794z"/>
	<path d="M348.979,247.079c1.004-7.467-2.575-14.771-9.063-18.561L28.022,46.469c-2.908-1.694-6.173-2.524-9.4-2.524
		c-3.324,0-6.666,0.879-9.62,2.67c-5.821,3.517-9.274,9.957-8.985,16.75l15.696,360.793c0.32,7.528,5.132,14.099,12.181,16.704
		c2.091,0.767,4.251,1.134,6.411,1.134c5.1,0,10.085-2.094,13.665-5.994l118.639-128.246l168.733-45.173
		C342.601,260.633,347.97,254.527,348.979,247.079z"/>
</g>
<g>
</g>
<g>
</g>
<g>
</g>
<g>
</g>
<g>
</g>
<g>
</g>
<g>
</g>
<g>
</g>
<g>
</g>
<g>
</g>
<g>
</g>
<g>
</g>
<g>
</g>
<g>
</g>
<g>
</g>
</svg>
