<?xml version="1.0" encoding="utf-8"?>
<!-- Generator: Adobe Illustrator 19.1.0, SVG Export Plug-In . SVG Version: 6.00 Build 0)  -->
<svg version="1.1" id="Layer_1" xmlns="http://www.w3.org/2000/svg" xmlns:xlink="http://www.w3.org/1999/xlink" x="0px" y="0px"
	 viewBox="70 -260 1100 1080" style="enable-background:new 70 -260 1100 1080;" xml:space="preserve">
<style type="text/css">
	.st0{fill:#EFEFEF;}
	.st1{fill:#505472;}
	.st2{fill:#FFFFFF;}
	.st3{fill:#5DA500;}
</style>
<rect x="-351.3" y="-260" class="st0" width="2200" height="1080"/>
<g>
	<g>
		<rect x="307.9" y="257.4" class="st1" width="607.1" height="245.1"/>
		<polygon class="st1" points="915.1,252.7 307.9,252.7 379.4,73 839.6,72.8 		"/>
		<g>
			<g>
				<polygon class="st2" points="838.8,182.8 776.9,156.7 786.5,179.3 600.4,179.3 600.4,186.3 786.5,186.3 776.9,208.9 				"/>
				<polygon class="st2" points="830,115.8 768.1,89.7 777.7,112.3 596.4,112.3 596.4,119.3 777.7,119.3 768.1,141.9 				"/>
			</g>
		</g>
		<g>
			<polygon class="st2" points="432.8,148.4 618.9,148.4 618.9,141.4 432.8,141.4 442.4,118.8 380.5,144.9 442.4,171 			"/>
			<polygon class="st2" points="623,208.3 441.7,208.3 451.3,185.8 389.4,211.9 451.3,238 441.7,215.4 623,215.4 			"/>
		</g>
		<path class="st2" d="M656.2,380.1h36.6l-8.5,20.1l55.1-23.2l-55.1-23.2l8.5,20.1h-36.7c20.4-18.6,33.5-36.9,27-46.4
			c-2.2-3.2-6.1-4.8-11.7-4.8c-12.4,0-33,8.2-55.5,21.4c-0.4-0.1-0.9-0.1-1.3-0.1v-35.9l20.1,7.1l-23.2-42.6l-23.2,45.6l20.1-10.1
			V344c-0.5,0.1-0.9,0.1-1.4,0.1c-22.5-13.3-43.1-21.4-55.4-21.4c-5.6,0-9.5,1.6-11.7,4.8c-4.4,6.4-0.5,16.8,11.6,30.9
			c4.3,5,9.6,10.2,15.4,15.5h-36.7l8.5-20.1L483.6,377l55.1,23.2l-8.5-20.1H567c-5.9,5.3-11.2,10.5-15.5,15.5
			c-12.1,14.1-16,24.5-11.6,30.9c2.2,3.2,6.1,4.8,11.7,4.8c12.4,0,33-8.2,55.5-21.5c0.4,0.1,0.9,0.1,1.3,0.1v32.9l-20.1-7.1
			l23.2,45.6l23.2-45.6l-20.1,7.1v-32.9c0.5-0.1,0.9-0.1,1.4-0.1c22.5,13.3,43.1,21.4,55.4,21.4c5.6,0,9.5-1.6,11.7-4.8
			C689.7,417,676.7,398.7,656.2,380.1z M551.5,424.5c-3.1,0-5.2-0.7-6.1-1.8c-1.8-2.6,0.9-10.6,11.1-22.5c5.1-6,11.7-12.3,19-18.6
			c1.3,1.1,2.6,2.1,3.9,3.2c2.4,10.1,9,18.4,18.3,22.6C578.8,417.9,561.6,424.5,551.5,424.5z M579,369.7c-1.2,1-2.3,1.9-3.5,2.9
			c-7.4-6.4-13.8-12.7-19-18.7c-10.1-11.9-12.8-19.9-11-22.5c0.8-1.2,3-1.8,6.1-1.8c10.1,0,27.3,6.6,46.3,17.2
			C588.5,351,581.4,359.4,579,369.7z M671.5,329.6c3.1,0,5.2,0.6,6.1,1.8c3.2,4.7-7.4,21.2-30.1,41c-1.3-1.1-2.6-2.1-3.9-3.2
			c-2.4-10-9-18.3-18.2-22.5C644.3,336.1,661.4,329.6,671.5,329.6z M677.5,422.6c-0.8,1.2-3,1.8-6.1,1.8c-10.1,0-27.3-6.6-46.3-17.2
			c9.3-4.2,16.4-12.6,18.8-22.8c1.2-1,2.3-2,3.5-2.9C670.3,401.4,680.8,417.9,677.5,422.6z"/>
	</g>
	<g>
		<circle class="st3" cx="611.5" cy="-45.9" r="100.4"/>
		<g>
			<path class="st2" d="M588-90.5c4.6-1.1,11.9-1.8,19.1-1.8c10.5,0,17.2,1.8,22.2,5.9c4.2,3.1,6.9,7.9,6.9,14.3
				c0,7.9-5.3,14.8-13.7,17.8v0.4c7.7,1.8,16.7,8.2,16.7,20.2c0,7-2.8,12.4-7,16.3c-5.5,5.2-14.7,7.6-27.9,7.6
				c-7.2,0-12.8-0.5-16.3-1V-90.5z M598.5-57.3h9.5c11,0,17.5-5.9,17.5-13.7c0-9.4-7.1-13.2-17.7-13.2c-4.8,0-7.6,0.4-9.3,0.7V-57.3
				L598.5-57.3z M598.5-18.5c2.2,0.4,5.1,0.5,8.8,0.5c10.8,0,20.8-4,20.8-15.8c0-11-9.5-15.7-20.9-15.7h-8.7L598.5-18.5L598.5-18.5z
				"/>
		</g>
	</g>
</g>
</svg>
