<?xml version="1.0" encoding="utf-8"?>
<!-- Generator: Adobe Illustrator 19.1.0, SVG Export Plug-In . SVG Version: 6.00 Build 0)  -->
<svg version="1.1" id="Layer_1" xmlns="http://www.w3.org/2000/svg" xmlns:xlink="http://www.w3.org/1999/xlink" x="0px" y="0px"
	 viewBox="70 -260 1100 1080" style="enable-background:new 70 -260 1100 1080;" xml:space="preserve">
<style type="text/css">
	.st0{fill:url(#SVGID_1_);}
	.st1{fill:#9CA1B3;}
	.st2{fill:url(#SVGID_2_);}
	.st3{fill:#FFFFFF;}
</style>
<g id="Layer_1_1_">
</g>
<g>
	
		<linearGradient id="SVGID_1_" gradientUnits="userSpaceOnUse" x1="432.95" y1="258.3578" x2="807.05" y2="258.3578" gradientTransform="matrix(1 0 0 -1 0 560)">
		<stop  offset="0" style="stop-color:#595C6E"/>
		<stop  offset="5.785039e-002" style="stop-color:#454858"/>
		<stop  offset="0.129" style="stop-color:#272B37"/>
		<stop  offset="0.2527" style="stop-color:#3F4157"/>
		<stop  offset="0.3548" style="stop-color:#58627E"/>
		<stop  offset="0.5699" style="stop-color:#3F4157"/>
		<stop  offset="0.7849" style="stop-color:#272832"/>
		<stop  offset="0.9946" style="stop-color:#414554"/>
	</linearGradient>
	<path class="st0" d="M432.9,111.2v344.4v-1.2c6.8,21.6,87.2,39,185.5,39c98.3,0,181.8-17.3,188.6-39l0,0V110L432.9,111.2z"/>
	<g>
		<path class="st1" d="M805.8,109.3c0,23.5-86.6,42-186.1,42s-186.1-19.2-186.1-42s86.6-42,186.1-42S805.8,85.8,805.8,109.3z"/>
		
			<linearGradient id="SVGID_2_" gradientUnits="userSpaceOnUse" x1="760.3422" y1="532.0357" x2="478.8465" y2="369.5143" gradientTransform="matrix(1 0 0 -1 0 560)">
			<stop  offset="0" style="stop-color:#595C6E"/>
			<stop  offset="0.2659" style="stop-color:#454858"/>
			<stop  offset="0.3065" style="stop-color:#414554"/>
			<stop  offset="0.5269" style="stop-color:#FFEEEA"/>
			<stop  offset="0.6694" style="stop-color:#C1B7B9"/>
			<stop  offset="0.8933" style="stop-color:#666571"/>
			<stop  offset="0.9946" style="stop-color:#414554"/>
		</linearGradient>
		<path class="st2" d="M619.7,69.8c104.5,0,183,20.4,183,39s-78.5,39-183,39c-104.5,0.6-183-19.8-183-38.3S515.2,69.8,619.7,69.8
			 M619.7,66.7c-99.6,0-186.1,19.2-186.1,42.7s86.6,42,186.1,42s186.1-19.2,186.1-42S719.2,66.7,619.7,66.7L619.7,66.7z"/>
	</g>
	<path class="st3" d="M567.7,268.3h-61.2c-3.7,0-6.2-2.5-6.2-6.2v-21.6c0-3.7,2.5-6.2,6.2-6.2h61.2c3.7,0,6.2,2.5,6.2,6.2v21.6
		C573.9,265.8,571.5,268.3,567.7,268.3z"/>
	<path class="st3" d="M567.7,315.2h-61.2c-3.7,0-6.2-2.5-6.2-6.2v-21.6c0-3.7,2.5-6.2,6.2-6.2h61.2c3.7,0,6.2,2.5,6.2,6.2v21.6
		C573.9,312.2,571.5,315.2,567.7,315.2z"/>
	<path class="st3" d="M567.7,361.6h-61.2c-3.7,0-6.2-2.5-6.2-6.2v-21c0-3.7,2.5-6.2,6.2-6.2h61.2c3.7,0,6.2,2.5,6.2,6.2v21.6
		C573.9,359.1,571.5,361.6,567.7,361.6z"/>
	<path class="st3" d="M567.7,408.6h-61.2c-3.7,0-6.2-2.5-6.2-6.2v-21.6c0-3.7,2.5-6.2,6.2-6.2h61.2c3.7,0,6.2,2.5,6.2,6.2v21.6
		C573.9,406.1,571.5,408.6,567.7,408.6z"/>
	<path class="st3" d="M586.9,241.7V400c0,3.1,3.7,5.6,6.8,3.7l156.4-79.1c3.1-1.9,3.1-6.2,0-8L593.1,238
		C590,236.1,586.9,238.6,586.9,241.7z"/>
	<g>
		<path class="st3" d="M566.5,88.9l51.3-13.6h0.6l53.8,13.6c1.2,0.6,1.2,1.9,0,1.9l-14.8,1.9c0,0,0,0-0.6,0l-24.1-5.6
			c-0.6,0-1.2,0.6-1.2,1.2v17.3c0,0.6-0.6,1.2-1.2,1.2h-20.4c-0.6,0-1.2-0.6-1.2-1.2V88.3c0-0.6-0.6-1.2-1.2-1.2L585.1,92
			c0,0,0,0-0.6,0l-17.3-1.2C565.9,90.8,565.3,88.9,566.5,88.9z"/>
		<path class="st3" d="M556,99.4l45.8,11.1l0,0l-50.7,12.4c-0.6,0.6-1.9,0.6-1.9,0l-13-2.5l0,0l23.5-5.6c0,0-0.6-0.6-1.2-0.6H475
			c-0.6,0-1.2,0-1.2-0.6v-6.2c0,0,0.6-0.6,1.2-0.6h83.5c0.6,0,1.2,0,1.2-0.6l-23.5-4.3l0,0l1.2-2.5C538.1,98.8,555.4,98.8,556,99.4z
			"/>
		<path class="st3" d="M684,99.4l-45.8,11.7l0,0l50.7,12.4c0.6,0.6,1.9,0.6,1.9,0l13-2.5l0,0l-23.5-5.6c0,0,0.6-0.6,1.2-0.6H765
			c0.6,0,1.2,0,1.2-0.6v-6.2c0,0-0.6-0.6-1.2-0.6h-84.1c-0.6,0-1.2,0-1.2-0.6l23.5-4.3l0,0l-1.2-3.1C701.9,98.8,684,98.8,684,99.4z"
			/>
		<path class="st3" d="M566.5,130.4l51.3,13.6h0.6l53.8-13.6c1.2-0.6,1.2-1.9,0-1.9l-14.8-1.2c0,0,0,0-0.6,0l-24.7,4.9
			c-0.6,0-1.2-0.6-1.2-1.2v-17.3c0-0.6-0.6-1.2-1.2-1.2h-20.4c-0.6,0-1.2,0.6-1.2,1.2V131c0,0.6-0.6,1.2-1.2,1.2l-22.3-4.9
			c0,0,0,0-0.6,0l-17.3,1.2C565.9,128.5,565.3,130.4,566.5,130.4z"/>
	</g>
</g>
</svg>
