<?xml version="1.0" encoding="utf-8"?>
<!-- Generator: Adobe Illustrator 17.0.0, SVG Export Plug-In . SVG Version: 6.00 Build 0)  -->
<!DOCTYPE svg PUBLIC "-//W3C//DTD SVG 1.1//EN" "http://www.w3.org/Graphics/SVG/1.1/DTD/svg11.dtd">
<svg version="1.1" id="Layer_1" xmlns="http://www.w3.org/2000/svg" xmlns:xlink="http://www.w3.org/1999/xlink" x="0px" y="0px"
	 width="1100px" height="1080px" viewBox="414.5 0 1100 1080" enable-background="new 414.5 0 1100 1080" xml:space="preserve">
<!--<circle fill="#EEEEEE" cx="964.5" cy="540" r="526"/>-->
<rect fill="#efefef" x="0" y="0" width="200%" height="1080"/>
<g>
	<rect x="664.5" y="511.595" fill="#505472" width="600" height="242.264"/>
	<polygon fill="#505472" points="1264.486,506.922 664.5,506.922 735.102,334.355 1189.939,329.141 	"/>
	<g>
		<g>
			<polygon fill="#FFFFFF" points="1189.158,437.812 1127.979,411.996 1137.472,434.327 953.558,434.327 953.558,441.296 
				1137.472,441.296 1127.979,463.627 			"/>
			<polygon fill="#FFFFFF" points="1180.446,371.6 1119.267,345.785 1128.76,368.115 949.585,368.115 949.585,375.085 
				1128.76,375.085 1119.267,397.416 			"/>
		</g>
	</g>
	<g>
		<polygon fill="#FFFFFF" points="787.932,403.842 971.846,403.842 971.846,396.872 787.932,396.872 797.425,374.541 
			736.245,400.357 797.425,426.158 		"/>
		<polygon fill="#FFFFFF" points="975.819,463.083 796.644,463.083 806.137,440.753 744.957,466.568 806.137,492.37 
			796.644,470.053 975.819,470.053 		"/>
	</g>
	<path fill="#FFFFFF" d="M1008.715,632.863h36.214l-8.433,19.863l54.433-22.958l-54.433-22.958l8.433,19.863h-36.256
		c20.198-18.344,33.12-36.451,26.638-45.846c-2.188-3.15-6.063-4.739-11.57-4.739c-12.225,0-32.632,8.057-54.879,21.188
		c-0.418-0.056-0.85-0.07-1.282-0.125v-35.434l19.863,6.984L964.5,526.607l-22.958,45.079l19.863-9.984v35.392
		c-0.446,0.056-0.92,0.056-1.366,0.125c-22.205-13.103-42.584-21.132-54.795-21.132c-5.492,0-9.381,1.603-11.556,4.739
		c-4.377,6.328-0.53,16.602,11.416,30.513c4.237,4.935,9.52,10.12,15.263,15.333h-36.298l8.433-19.863l-54.433,22.958l54.433,22.958
		l-8.433-19.863h36.367c-5.785,5.213-11.082,10.399-15.319,15.333c-11.96,13.925-15.793,24.185-11.416,30.527
		c2.174,3.136,6.064,4.739,11.556,4.739c12.225,0,32.632-8.071,54.879-21.202c0.418,0.056,0.864,0.07,1.282,0.125v32.534
		l-19.863-6.984l22.944,45.079l22.958-45.079l-19.863,6.984v-32.478c0.46-0.056,0.92-0.056,1.366-0.125
		c22.205,13.103,42.57,21.146,54.781,21.146c5.492,0,9.381-1.603,11.57-4.753C1041.793,669.314,1028.885,651.207,1008.715,632.863z
		 M905.244,676.674c-3.039,0-5.171-0.655-5.98-1.826c-1.798-2.593,0.906-10.482,10.984-22.233
		c5.046-5.882,11.583-12.113,18.804-18.372c1.255,1.045,2.523,2.077,3.819,3.122c2.37,9.939,8.921,18.205,18.037,22.345
		C932.133,670.192,915.197,676.674,905.244,676.674z M932.412,622.548c-1.185,0.948-2.272,1.896-3.415,2.844
		c-7.29-6.301-13.66-12.559-18.734-18.469c-10.092-11.751-12.796-19.64-10.984-22.247c0.809-1.171,2.941-1.812,5.98-1.812
		c9.966,0,26.931,6.496,45.735,16.992C941.723,604.079,934.698,612.372,932.412,622.548z M1023.756,582.863
		c3.053,0,5.171,0.641,5.98,1.812c3.206,4.642-7.346,20.979-29.76,40.535c-1.282-1.059-2.565-2.119-3.889-3.164
		c-2.398-9.869-8.921-18.093-18.009-22.219C996.867,589.345,1013.803,582.863,1023.756,582.863z M1029.735,674.848
		c-0.808,1.185-2.927,1.826-5.98,1.826c-9.967,0-26.931-6.496-45.735-17.006c9.228-4.196,16.225-12.448,18.539-22.568
		c1.199-0.962,2.3-1.951,3.471-2.913C1022.571,653.828,1032.942,670.206,1029.735,674.848z"/>
</g>
</svg>
