<?xml version="1.0" encoding="utf-8"?>
<!-- Generator: Adobe Illustrator 19.1.0, SVG Export Plug-In . SVG Version: 6.00 Build 0)  -->
<svg version="1.1" id="Layer_1" xmlns="http://www.w3.org/2000/svg" xmlns:xlink="http://www.w3.org/1999/xlink" x="0px" y="0px"
	 viewBox="0 0 272 234" style="enable-background:new 0 0 272 234;" xml:space="preserve">
<style type="text/css">
	.st0{fill:url(#SVGID_1_);}
	.st1{fill:#9CA1B3;}
	.st2{fill:url(#SVGID_2_);}
	.st3{fill:#FFFFFF;}
</style>
<linearGradient id="SVGID_1_" gradientUnits="userSpaceOnUse" x1="60" y1="124.3929" x2="219.5" y2="124.3929">
	<stop  offset="0" style="stop-color:#595C6E"/>
	<stop  offset="5.785039e-002" style="stop-color:#454858"/>
	<stop  offset="0.129" style="stop-color:#272B37"/>
	<stop  offset="0.2527" style="stop-color:#3F4157"/>
	<stop  offset="0.3548" style="stop-color:#58627E"/>
	<stop  offset="0.5699" style="stop-color:#3F4157"/>
	<stop  offset="0.7849" style="stop-color:#272832"/>
	<stop  offset="0.9946" style="stop-color:#414554"/>
</linearGradient>
<path class="st0" d="M219.5,42.3H60v147.4h0.2c2.9,9.4,37.3,16.8,79.5,16.8c42.1,0,76.6-7.4,79.5-16.8h0.4V42.3z"/>
<g>
	<ellipse class="st1" cx="139.5" cy="42" rx="79.5" ry="18"/>
	<linearGradient id="SVGID_2_" gradientUnits="userSpaceOnUse" x1="199.7144" y1="7.3076" x2="79.3689" y2="76.7891">
		<stop  offset="0" style="stop-color:#595C6E"/>
		<stop  offset="0.2659" style="stop-color:#454858"/>
		<stop  offset="0.3065" style="stop-color:#414554"/>
		<stop  offset="0.5269" style="stop-color:#FFEEEA"/>
		<stop  offset="0.6694" style="stop-color:#C1B7B9"/>
		<stop  offset="0.8933" style="stop-color:#666571"/>
		<stop  offset="0.9946" style="stop-color:#414554"/>
	</linearGradient>
	<path class="st2" d="M139.5,25c47,0,78.5,8.8,78.5,17c0,8.2-31.6,17-78.5,17S61,50.3,61,42C61,33.8,92.6,25,139.5,25 M139.5,24
		C95.6,24,60,32.1,60,42c0,10,35.6,18,79.5,18s79.5-8.1,79.5-18C219.1,32.1,183.5,24,139.5,24L139.5,24z"/>
</g>
<path class="st3" d="M119,109.5H89.5c-0.6,0-1-0.4-1-1V96c0-0.6,0.4-1,1-1H119c0.6,0,1,0.4,1,1v12.5
	C120,109.1,119.6,109.5,119,109.5z"/>
<path class="st3" d="M119,129.5H89.5c-0.6,0-1-0.4-1-1V116c0-0.6,0.4-1,1-1H119c0.6,0,1,0.4,1,1v12.5
	C120,129.1,119.6,129.5,119,129.5z"/>
<path class="st3" d="M119,149.5H89.5c-0.6,0-1-0.4-1-1V136c0-0.6,0.4-1,1-1H119c0.6,0,1,0.4,1,1v12.5
	C120,149.1,119.6,149.5,119,149.5z"/>
<path class="st3" d="M119,169.5H89.5c-0.6,0-1-0.4-1-1V156c0-0.6,0.4-1,1-1H119c0.6,0,1,0.4,1,1v12.5
	C120,169.1,119.6,169.5,119,169.5z"/>
<path class="st3" d="M125.4,98.1v67.8c0,1.4,1.5,2.4,2.8,1.7l66.9-33.9c1.4-0.7,1.4-2.7,0-3.4l-66.9-33.9
	C126.9,95.7,125.4,96.7,125.4,98.1z"/>
<g>
	<path class="st3" d="M116.8,32.7l22.1-5.9c0.1,0,0.2,0,0.3,0l23.1,5.9c0.5,0.1,0.5,0.8-0.1,0.9l-6.5,0.6c-0.1,0-0.1,0-0.2,0L145,32
		c-0.3-0.1-0.6,0.1-0.6,0.4v7.4c0,0.3-0.2,0.5-0.5,0.5h-8.7c-0.3,0-0.5-0.2-0.5-0.5v-7.3c0-0.3-0.3-0.5-0.6-0.4l-9.5,2.2
		c-0.1,0-0.1,0-0.2,0l-7.5-0.6C116.4,33.5,116.3,32.8,116.8,32.7z"/>
	<path class="st3" d="M112.2,37.1l19.6,4.9c0,0,0,0.1,0,0.1l-21.6,5.2c-0.1,0.2-0.9,0.1-0.9,0l-5.5-1c0,0,0,0,0-0.1l10.1-2.3
		c0.1-0.1-0.1-0.2-0.5-0.2H77.6c-0.3,0-0.5-0.1-0.5-0.2v-2.7c0-0.1,0.2-0.2,0.5-0.2h35.8c0.3,0,0.5-0.1,0.5-0.2l-10-2c0,0,0,0,0-0.1
		l0.7-1.3C104.4,37,112,37,112.2,37.1z"/>
	<path class="st3" d="M166.9,37.1L147.3,42c0,0,0,0.1,0,0.1l21.6,5.2c0.1,0.2,0.9,0.1,0.9,0l5.5-1c0,0,0,0,0-0.1l-10.1-2.3
		c-0.1-0.1,0.1-0.2,0.5-0.2h35.8c0.3,0,0.5-0.1,0.5-0.2v-2.7c0-0.1-0.2-0.2-0.5-0.2h-35.8c-0.3,0-0.5-0.1-0.5-0.2l10-2
		c0,0,0,0,0-0.1l-0.7-1.3C174.6,37,167.1,37,166.9,37.1z"/>
	<path class="st3" d="M116.8,50.5l22.1,5.9c0.1,0,0.2,0,0.3,0l23.1-5.9c0.5-0.1,0.5-0.8-0.1-0.9l-6.5-0.6c-0.1,0-0.1,0-0.2,0
		L145,51.2c-0.3,0.1-0.6-0.1-0.6-0.4v-7.4c0-0.3-0.2-0.5-0.5-0.5h-8.7c-0.3,0-0.5,0.2-0.5,0.5v7.3c0,0.3-0.3,0.5-0.6,0.4l-9.5-2.2
		c-0.1,0-0.1,0-0.2,0l-7.5,0.6C116.4,49.7,116.3,50.4,116.8,50.5z"/>
</g>
</svg>
