<?xml version="1.0" encoding="utf-8"?>
<!-- Generator: Adobe Illustrator 17.0.0, SVG Export Plug-In . SVG Version: 6.00 Build 0)  -->
<!DOCTYPE svg PUBLIC "-//W3C//DTD SVG 1.1//EN" "http://www.w3.org/Graphics/SVG/1.1/DTD/svg11.dtd">
<svg version="1.1" id="Layer_1" xmlns="http://www.w3.org/2000/svg" xmlns:xlink="http://www.w3.org/1999/xlink" x="0px" y="0px"
	 width="48px" height="48px" viewBox="0 0 48 48" enable-background="new 0 0 48 48" xml:space="preserve">
<g>
	<polygon points="30.11,15.76 30.059,21.589 43.261,14.969 30.174,8.502 30.118,14.844 30.118,15.76 	"/>
	<path d="M30.118,33.323h-5.382c0.271-2.535,0.419-5.356,0.419-8.471c0-3.295-0.161-6.343-0.463-9.091h5.418l0.008-0.916v-0.896
		h-5.65C23.304,5.614,20.741,0.5,17.379,0.5c-3.361,0-5.925,5.114-7.089,13.448H4.749v1.813h5.316
		c-0.301,2.748-0.463,5.796-0.463,9.091c0,3.115,0.148,5.937,0.419,8.471H4.749v1.813h5.495c1.104,7.88,3.598,12.365,7.135,12.365
		s6.031-4.485,7.135-12.365h5.596l0.008-0.916V33.323z M17.379,1.5c2.446,0,4.908,4.254,6.075,12.448h-12.15
		C12.471,5.754,14.933,1.5,17.379,1.5z M10.603,24.852c0-3.4,0.175-6.418,0.473-9.091h12.606c0.298,2.673,0.473,5.691,0.473,9.091
		c0,3.236-0.152,6.042-0.417,8.471H11.02C10.755,30.894,10.603,28.088,10.603,24.852z M17.379,46.5
		c-2.329,0-4.948-3.151-6.132-11.365h12.265C22.327,43.349,19.708,46.5,17.379,46.5z"/>
	<polygon points="30.118,34.219 30.118,35.135 30.11,35.135 30.059,40.964 43.261,34.344 30.174,27.877 	"/>
</g>
</svg>
