<?xml version="1.0" encoding="utf-8"?>
<!-- Generator: Adobe Illustrator 17.0.0, SVG Export Plug-In . SVG Version: 6.00 Build 0)  -->
<!DOCTYPE svg PUBLIC "-//W3C//DTD SVG 1.1//EN" "http://www.w3.org/Graphics/SVG/1.1/DTD/svg11.dtd">
<svg version="1.1" id="Layer_1" xmlns="http://www.w3.org/2000/svg" xmlns:xlink="http://www.w3.org/1999/xlink" x="0px" y="0px"
	 width="1100px" height="1080px" viewBox="410 0 1100 1080" enable-background="new 410 0 1100 1080" xml:space="preserve">
<!--<circle fill="#EEEEEE" cx="964.5" cy="540" r="526"/>-->
<rect fill="#efefef" x="0" y="0" width="200%" height="1080"/>
<g>
	<rect x="810" y="487.04" fill="#303345" width="300" height="300"/>
	<rect x="810" y="363.64" opacity="0.95" fill="#303345" width="300" height="115.65"/>
	<path fill="#FFFFFF" d="M1003.826,640.065h35.895l-8.359,19.688l53.953-22.756l-53.953-22.756l8.359,19.688h-35.936
		c20.02-18.182,32.828-36.13,26.403-45.442c-2.169-3.122-6.01-4.698-11.468-4.698c-12.117,0-32.344,7.986-54.395,21.001
		c-0.415-0.055-0.843-0.069-1.271-0.124v-35.121l19.688,6.922L960,534.745l-22.756,44.682l19.688-9.896v35.08
		c-0.442,0.055-0.912,0.055-1.354,0.124c-22.01-12.987-42.209-20.946-54.312-20.946c-5.444,0-9.298,1.589-11.454,4.698
		c-4.338,6.273-0.525,16.455,11.316,30.244c4.2,4.891,9.437,10.031,15.129,15.198H880.28l8.359-19.688l-53.953,22.756l53.953,22.756
		l-8.359-19.688h36.047c-5.734,5.167-10.984,10.307-15.184,15.198c-11.854,13.802-15.654,23.971-11.316,30.258
		c2.155,3.109,6.01,4.698,11.454,4.698c12.117,0,32.344-8,54.395-21.015c0.414,0.055,0.857,0.069,1.271,0.124v32.247l-19.688-6.922
		L960,739.335l22.756-44.682l-19.688,6.922v-32.192c0.456-0.055,0.912-0.055,1.354-0.124c22.009,12.987,42.195,20.959,54.298,20.959
		c5.444,0,9.298-1.589,11.468-4.711C1036.612,676.194,1023.818,658.247,1003.826,640.065z M901.267,683.49
		c-3.012,0-5.126-0.649-5.927-1.81c-1.782-2.57,0.898-10.39,10.887-22.037c5.001-5.831,11.481-12.006,18.638-18.21
		c1.243,1.036,2.501,2.059,3.786,3.095c2.349,9.851,8.842,18.044,17.878,22.148C927.918,677.065,911.132,683.49,901.267,683.49z
		 M928.195,629.84c-1.174,0.94-2.252,1.879-3.385,2.819c-7.226-6.245-13.54-12.449-18.569-18.307
		c-10.003-11.647-12.683-19.467-10.887-22.051c0.801-1.161,2.915-1.796,5.927-1.796c9.879,0,26.693,6.438,45.331,16.842
		C937.424,611.534,930.461,619.755,928.195,629.84z M1018.733,590.505c3.026,0,5.126,0.636,5.927,1.796
		c3.178,4.601-7.281,20.794-29.498,40.178c-1.271-1.05-2.542-2.1-3.855-3.136c-2.376-9.782-8.842-17.934-17.851-22.023
		C992.082,596.93,1008.868,590.505,1018.733,590.505z M1024.661,681.68c-0.801,1.174-2.901,1.81-5.927,1.81
		c-9.879,0-26.693-6.438-45.331-16.856c9.146-4.159,16.082-12.338,18.376-22.369c1.188-0.953,2.28-1.934,3.44-2.888
		C1017.559,660.844,1027.838,677.079,1024.661,681.68z"/>
	<g>
		<rect x="849" y="378.7" fill="#FFFFFF" width="55.459" height="28.506"/>
		<rect x="1015.541" y="378.7" fill="#FFFFFF" width="55.459" height="28.506"/>
		<rect x="849" y="436.603" fill="#FFFFFF" width="55.459" height="28.506"/>
		<rect x="1015.541" y="437.315" fill="#FFFFFF" width="55.459" height="28.506"/>
		
			<line fill="none" stroke="#FFFFFF" stroke-width="5" stroke-miterlimit="10" x1="904.459" y1="392.953" x2="1015.541" y2="392.953"/>
		
			<line fill="none" stroke="#FFFFFF" stroke-width="5" stroke-miterlimit="10" x1="872.735" y1="447.497" x2="1043.271" y2="396.516"/>
		
			<line fill="none" stroke="#FFFFFF" stroke-width="5" stroke-miterlimit="10" x1="1043.271" y1="447.497" x2="872.735" y2="396.516"/>
		
			<line fill="none" stroke="#FFFFFF" stroke-width="5" stroke-miterlimit="10" x1="904.459" y1="443.017" x2="1015.541" y2="443.017"/>
	</g>
	<polygon fill="#474A65" points="1109.383,358.24 810,358.24 845.229,293.122 1072.185,292.96 	"/>
</g>
</svg>
