<?xml version="1.0" encoding="utf-8"?>
<!-- Generator: Adobe Illustrator 17.0.0, SVG Export Plug-In . SVG Version: 6.00 Build 0)  -->
<!DOCTYPE svg PUBLIC "-//W3C//DTD SVG 1.1//EN" "http://www.w3.org/Graphics/SVG/1.1/DTD/svg11.dtd">
<svg version="1.1" id="Layer_1" xmlns="http://www.w3.org/2000/svg" xmlns:xlink="http://www.w3.org/1999/xlink" x="0px" y="0px"
	 width="1100px" height="1080px" viewBox="410 0 1100 1080" enable-background="new 410 0 1100 1080" xml:space="preserve">
<!--<circle fill="#EEEEEE" cx="964.5" cy="540" r="526"/>-->
<rect fill="#efefef" x="0" y="0" width="200%" height="1080"/>
<g>
	<g>
		<path fill="#505472" d="M1093.058,241.412H826.942c-9.354,0-16.942,7.59-16.942,16.949v563.278
			c0,9.359,7.588,16.949,16.942,16.949h266.116c9.354,0,16.942-7.59,16.942-16.949V258.361
			C1110,249.002,1102.412,241.412,1093.058,241.412z M959.999,776.957c-32.704,0-59.214-26.513-59.214-59.214
			s26.511-59.214,59.214-59.214c32.704,0,59.214,26.513,59.214,59.214S992.703,776.957,959.999,776.957z M1068.905,605.53
			c0,9.35-7.59,16.942-16.957,16.942H868.051c-9.367,0-16.957-7.593-16.957-16.942v-16.942c0-9.381,7.59-16.966,16.957-16.966
			h183.897c9.367,0,16.957,7.585,16.957,16.966V605.53z M1068.905,520.788c0,9.354-7.59,16.944-16.957,16.944H868.051
			c-9.367,0-16.957-7.59-16.957-16.944v-16.966c0-9.354,7.59-16.944,16.957-16.944h183.897c9.367,0,16.957,7.59,16.957,16.944
			V520.788z M1068.905,436.024c0,9.371-7.59,16.959-16.957,16.959H868.051c-9.367,0-16.957-7.585-16.957-16.959v-16.942
			c0-9.352,7.59-16.942,16.957-16.942h183.897c9.367,0,16.957,7.59,16.957,16.942V436.024z M1068.905,351.287
			c0,9.352-7.59,16.942-16.957,16.942H868.051c-9.367,0-16.957-7.59-16.957-16.942V334.34c0-9.374,7.59-16.959,16.957-16.959
			h183.897c9.367,0,16.957,7.585,16.957,16.959V351.287z"/>
	</g>
</g>
</svg>
