<?xml version="1.0" encoding="utf-8"?>
<!-- Generator: Adobe Illustrator 17.0.0, SVG Export Plug-In . SVG Version: 6.00 Build 0)  -->
<!DOCTYPE svg PUBLIC "-//W3C//DTD SVG 1.1//EN" "http://www.w3.org/Graphics/SVG/1.1/DTD/svg11.dtd">
<svg version="1.1" id="Layer_1" xmlns="http://www.w3.org/2000/svg" xmlns:xlink="http://www.w3.org/1999/xlink" x="0px" y="0px"
	 width="1100px" height="1080px" viewBox="0 0 1100 1080" enable-background="new 0 0 1100 1080" xml:space="preserve">
<g id="Layer_1_1_">
</g>
<!--<circle fill="#EEEEEE" cx="964.5" cy="540" r="526"/>-->
<rect fill="#efefef" x="0" y="0" width="200%" height="1080"/>
<g>
	<rect x="250" y="510.095" fill="#666666" width="600" height="242.264"/>
	<polygon fill="#666666" points="849.986,505.422 250,505.422 320.602,332.855 775.439,327.641 	"/>
	<g>
		<g>
			<polygon fill="#FFFFFF" points="774.658,436.312 713.479,410.496 722.972,432.827 539.058,432.827 539.058,439.796 
				722.972,439.796 713.479,462.127 			"/>
			<polygon fill="#FFFFFF" points="765.946,370.1 704.767,344.285 714.26,366.615 535.085,366.615 535.085,373.585 714.26,373.585 
				704.767,395.916 			"/>
		</g>
	</g>
	<g>
		<polygon fill="#FFFFFF" points="373.432,402.342 557.346,402.342 557.346,395.372 373.432,395.372 382.925,373.041 
			321.745,398.857 382.925,424.658 		"/>
		<polygon fill="#FFFFFF" points="561.319,461.583 382.144,461.583 391.637,439.253 330.457,465.068 391.637,490.87 
			382.144,468.553 561.319,468.553 		"/>
	</g>
	<path fill="#FFFFFF" d="M594.215,631.363h36.214l-8.433,19.863l54.433-22.958l-54.433-22.958l8.433,19.863h-36.256
		c20.198-18.344,33.12-36.451,26.638-45.846c-2.188-3.15-6.063-4.739-11.57-4.739c-12.225,0-32.632,8.057-54.879,21.188
		c-0.418-0.056-0.85-0.07-1.282-0.125v-35.434l19.863,6.984L550,525.107l-22.958,45.079l19.863-9.984v35.392
		c-0.446,0.056-0.92,0.056-1.366,0.125c-22.205-13.103-42.584-21.132-54.795-21.132c-5.492,0-9.381,1.603-11.556,4.739
		c-4.377,6.328-0.53,16.602,11.416,30.513c4.237,4.935,9.52,10.12,15.263,15.333h-36.298l8.433-19.863l-54.433,22.958l54.433,22.958
		l-8.433-19.863h36.367c-5.785,5.213-11.082,10.399-15.319,15.333c-11.96,13.925-15.793,24.185-11.416,30.527
		c2.174,3.136,6.064,4.739,11.556,4.739c12.225,0,32.632-8.071,54.879-21.202c0.418,0.056,0.864,0.07,1.282,0.125v32.534
		l-19.863-6.984L550,731.516l22.958-45.079l-19.863,6.984v-32.478c0.46-0.056,0.92-0.056,1.366-0.125
		c22.205,13.103,42.57,21.146,54.781,21.146c5.492,0,9.381-1.603,11.57-4.753C627.293,667.814,614.385,649.707,594.215,631.363z
		 M490.744,675.174c-3.039,0-5.171-0.655-5.98-1.826c-1.798-2.593,0.906-10.482,10.984-22.233
		c5.046-5.882,11.583-12.113,18.804-18.372c1.255,1.045,2.523,2.077,3.819,3.122c2.37,9.939,8.921,18.205,18.037,22.345
		C517.633,668.692,500.697,675.174,490.744,675.174z M517.912,621.048c-1.185,0.948-2.272,1.896-3.415,2.844
		c-7.29-6.301-13.66-12.559-18.734-18.469c-10.092-11.751-12.796-19.64-10.984-22.247c0.809-1.171,2.941-1.812,5.98-1.812
		c9.966,0,26.931,6.496,45.735,16.992C527.223,602.579,520.198,610.872,517.912,621.048z M609.256,581.363
		c3.053,0,5.171,0.641,5.98,1.812c3.206,4.642-7.346,20.979-29.76,40.535c-1.282-1.059-2.565-2.119-3.889-3.164
		c-2.398-9.869-8.921-18.093-18.009-22.219C582.367,587.845,599.303,581.363,609.256,581.363z M615.235,673.348
		c-0.808,1.185-2.927,1.826-5.98,1.826c-9.967,0-26.931-6.496-45.735-17.006c9.228-4.196,16.225-12.448,18.539-22.568
		c1.199-0.962,2.3-1.951,3.471-2.913C608.071,652.328,618.442,668.706,615.235,673.348z"/>
</g>
</svg>
