<?xml version="1.0" encoding="utf-8"?>
<!-- Generator: Adobe Illustrator 19.1.0, SVG Export Plug-In . SVG Version: 6.00 Build 0)  -->
<svg version="1.1" id="Layer_1" xmlns="http://www.w3.org/2000/svg" xmlns:xlink="http://www.w3.org/1999/xlink" x="0px" y="0px"
	 viewBox="70 -260 1100 1080" style="enable-background:new 70 -260 1100 1080;" xml:space="preserve">
<style type="text/css">
	.st0{fill:#EFEFEF;}
	.st1{fill:#505472;}
	.st2{fill:#FFFFFF;}
	.st3{fill:#D30000;}
</style>
<rect x="-375.6" y="-260" class="st0" width="2200" height="1080"/>
<g>
	<g>
		<rect x="283.6" y="257.4" class="st1" width="607.1" height="245.1"/>
		<polygon class="st1" points="890.8,252.7 283.6,252.7 355.1,73 815.3,72.8 		"/>
		<g>
			<g>
				<polygon class="st2" points="814.5,182.8 752.6,156.7 762.2,179.3 576.1,179.3 576.1,186.3 762.2,186.3 752.6,208.9 				"/>
				<polygon class="st2" points="805.7,115.8 743.8,89.7 753.4,112.3 572.1,112.3 572.1,119.3 753.4,119.3 743.8,141.9 				"/>
			</g>
		</g>
		<g>
			<polygon class="st2" points="408.5,148.4 594.6,148.4 594.6,141.4 408.5,141.4 418.1,118.8 356.2,144.9 418.1,171 			"/>
			<polygon class="st2" points="598.7,208.3 417.4,208.3 427,185.8 365.1,211.9 427,238 417.4,215.4 598.7,215.4 			"/>
		</g>
		<path class="st2" d="M631.9,380.1h36.6l-8.5,20.1l55.1-23.2L660,353.8l8.5,20.1h-36.7c20.4-18.6,33.5-36.9,27-46.4
			c-2.2-3.2-6.1-4.8-11.7-4.8c-12.4,0-33,8.2-55.5,21.4c-0.4-0.1-0.9-0.1-1.3-0.1v-35.9l20.1,7.1l-23.2-42.6L564,318.2l20.1-10.1
			V344c-0.5,0.1-0.9,0.1-1.4,0.1c-22.5-13.3-43.1-21.4-55.4-21.4c-5.6,0-9.5,1.6-11.7,4.8c-4.4,6.4-0.5,16.8,11.6,30.9
			c4.3,5,9.6,10.2,15.4,15.5h-36.7l8.5-20.1L459.3,377l55.1,23.2l-8.5-20.1h36.8c-5.9,5.3-11.2,10.5-15.5,15.5
			c-12.1,14.1-16,24.5-11.6,30.9c2.2,3.2,6.1,4.8,11.7,4.8c12.4,0,33-8.2,55.5-21.5c0.4,0.1,0.9,0.1,1.3,0.1v32.9l-20.1-7.1
			l23.2,45.6l23.2-45.6l-20.1,7.1v-32.9c0.5-0.1,0.9-0.1,1.4-0.1c22.5,13.3,43.1,21.4,55.4,21.4c5.6,0,9.5-1.6,11.7-4.8
			C665.4,417,652.4,398.7,631.9,380.1z M527.2,424.5c-3.1,0-5.2-0.7-6.1-1.8c-1.8-2.6,0.9-10.6,11.1-22.5c5.1-6,11.7-12.3,19-18.6
			c1.3,1.1,2.6,2.1,3.9,3.2c2.4,10.1,9,18.4,18.3,22.6C554.5,417.9,537.3,424.5,527.2,424.5z M554.7,369.7c-1.2,1-2.3,1.9-3.5,2.9
			c-7.4-6.4-13.8-12.7-19-18.7c-10.1-11.9-12.8-19.9-11-22.5c0.8-1.2,3-1.8,6.1-1.8c10.1,0,27.3,6.6,46.3,17.2
			C564.2,351,557.1,359.4,554.7,369.7z M647.2,329.6c3.1,0,5.2,0.6,6.1,1.8c3.2,4.7-7.4,21.2-30.1,41c-1.3-1.1-2.6-2.1-3.9-3.2
			c-2.4-10-9-18.3-18.2-22.5C620,336.1,637.1,329.6,647.2,329.6z M653.2,422.6c-0.8,1.2-3,1.8-6.1,1.8c-10.1,0-27.3-6.6-46.3-17.2
			c9.3-4.2,16.4-12.6,18.8-22.8c1.2-1,2.3-2,3.5-2.9C646,401.4,656.5,417.9,653.2,422.6z"/>
	</g>
	<g>
		<circle class="st3" cx="588.9" cy="-45.5" r="100"/>
		<g>
			<path class="st2" d="M568.7-81.1h43.5v8.8h-33v26.9h30.5v8.6h-30.5v36.6h-10.6L568.7-81.1L568.7-81.1z"/>
		</g>
	</g>
</g>
</svg>
