<?xml version="1.0" encoding="utf-8"?>
<!-- Generator: Adobe Illustrator 19.1.0, SVG Export Plug-In . SVG Version: 6.00 Build 0)  -->
<svg version="1.1" id="Layer_1" xmlns="http://www.w3.org/2000/svg" xmlns:xlink="http://www.w3.org/1999/xlink" x="0px" y="0px"
	 viewBox="0 0 24 24" style="enable-background:new 0 0 24 24;" xml:space="preserve">
<style type="text/css">
	.st0{fill:url(#SVGID_1_);}
	.st1{fill:#9CA1B3;}
	.st2{fill:url(#SVGID_2_);}
	.st3{fill:#FFFFFF;}
</style>
<g>
	
		<linearGradient id="SVGID_1_" gradientUnits="userSpaceOnUse" x1="1.6322" y1="12.8004" x2="22.3678" y2="12.8004" gradientTransform="matrix(1 0 0 -1 0 26)">
		<stop  offset="0" style="stop-color:#595C6E"/>
		<stop  offset="5.785039e-002" style="stop-color:#454858"/>
		<stop  offset="0.129" style="stop-color:#272B37"/>
		<stop  offset="0.2527" style="stop-color:#3F4157"/>
		<stop  offset="0.3548" style="stop-color:#58627E"/>
		<stop  offset="0.5699" style="stop-color:#3F4157"/>
		<stop  offset="0.7849" style="stop-color:#272832"/>
		<stop  offset="0.9946" style="stop-color:#414554"/>
	</linearGradient>
	<path class="st0" d="M1.6,2.6v19.1v-0.1c0.4,1.2,4.8,2.2,10.3,2.2s10.1-1,10.5-2.2l0,0V2.6L1.6,2.6z"/>
	<g>
		<path class="st1" d="M22.4,2.5c0,1.3-4.8,2.3-10.4,2.3S1.7,3.8,1.7,2.5S6.5,0.2,12,0.2S22.4,1.2,22.4,2.5z"/>
		
			<linearGradient id="SVGID_2_" gradientUnits="userSpaceOnUse" x1="19.8387" y1="27.9846" x2="4.1849" y2="18.9469" gradientTransform="matrix(1 0 0 -1 0 26)">
			<stop  offset="0" style="stop-color:#595C6E"/>
			<stop  offset="0.2659" style="stop-color:#454858"/>
			<stop  offset="0.3065" style="stop-color:#414554"/>
			<stop  offset="0.5269" style="stop-color:#FFEEEA"/>
			<stop  offset="0.6694" style="stop-color:#C1B7B9"/>
			<stop  offset="0.8933" style="stop-color:#666571"/>
			<stop  offset="0.9946" style="stop-color:#414554"/>
		</linearGradient>
		<path class="st2" d="M12,0.3c5.8,0,10.2,1.1,10.2,2.2S17.8,4.7,12,4.7C6.2,4.7,1.8,3.6,1.8,2.5S6.2,0.3,12,0.3 M12,0.2
			C6.5,0.2,1.7,1.2,1.7,2.5S6.5,4.9,12,4.9s10.4-1.1,10.4-2.3S17.6,0.2,12,0.2L12,0.2z"/>
	</g>
	<path class="st3" d="M9.1,11.3H5.7c-0.2,0-0.3-0.1-0.3-0.3V9.8c0-0.2,0.1-0.3,0.3-0.3h3.4c0.2,0,0.3,0.1,0.3,0.3V11
		C9.4,11.2,9.3,11.3,9.1,11.3z"/>
	<path class="st3" d="M9.1,14H5.7c-0.2,0-0.3-0.1-0.3-0.3v-1.2c0-0.2,0.1-0.3,0.3-0.3h3.4c0.2,0,0.3,0.1,0.3,0.3v1.2
		C9.4,13.8,9.3,14,9.1,14z"/>
	<path class="st3" d="M9.1,16.5H5.7c-0.2,0-0.3-0.1-0.3-0.3V15c0-0.2,0.1-0.3,0.3-0.3h3.4c0.2,0,0.3,0.1,0.3,0.3v1.2
		C9.4,16.4,9.3,16.5,9.1,16.5z"/>
	<path class="st3" d="M9.1,19.1H5.7c-0.2,0-0.3-0.1-0.3-0.3v-1.2c0-0.2,0.1-0.3,0.3-0.3h3.4c0.2,0,0.3,0.1,0.3,0.3v1.2
		C9.4,19,9.3,19.1,9.1,19.1z"/>
	<path class="st3" d="M10.2,9.9v8.8c0,0.2,0.2,0.3,0.4,0.2l8.7-4.4c0.2-0.1,0.2-0.3,0-0.4l-8.7-4.4C10.3,9.6,10.2,9.7,10.2,9.9z"/>
	<g>
		<path class="st3" d="M9,1.4l2.8-0.8h0l3,0.8c0.1,0,0.1,0.1,0,0.1l-0.8,0.1c0,0,0,0,0,0l-1.3-0.3c0,0-0.1,0-0.1,0.1v1
			c0,0,0,0.1-0.1,0.1h-1.1c0,0-0.1,0-0.1-0.1v-1c0,0,0-0.1-0.1-0.1l-1.2,0.3c0,0,0,0,0,0l-1-0.1C9,1.5,9,1.4,9,1.4z"/>
		<path class="st3" d="M8.5,2L11,2.6l0,0L8.2,3.3c0,0-0.1,0-0.1,0L7.4,3.2l0,0l1.3-0.3c0,0,0,0-0.1,0H4c0,0-0.1,0-0.1,0V2.4
			c0,0,0,0,0.1,0h4.6c0,0,0.1,0,0.1,0L7.4,2.1l0,0L7.4,2C7.5,2,8.4,2,8.5,2z"/>
		<path class="st3" d="M15.5,2L13,2.6l0,0l2.8,0.7c0,0,0.1,0,0.1,0l0.7-0.1l0,0l-1.3-0.3c0,0,0,0,0.1,0H20c0,0,0.1,0,0.1,0V2.5
			c0,0,0,0-0.1,0h-4.7c0,0-0.1,0-0.1,0l1.3-0.2l0,0L16.5,2C16.5,2,15.5,2,15.5,2z"/>
		<path class="st3" d="M9,3.7l2.8,0.8h0l3-0.8c0.1,0,0.1-0.1,0-0.1l-0.8-0.1c0,0,0,0,0,0l-1.4,0.3c0,0-0.1,0-0.1-0.1v-1
			c0,0,0-0.1-0.1-0.1h-1.1c0,0-0.1,0-0.1,0.1v1c0,0,0,0.1-0.1,0.1L10,3.5c0,0,0,0,0,0L9,3.6C9,3.6,9,3.7,9,3.7z"/>
	</g>
</g>
</svg>
