<?xml version="1.0" encoding="utf-8"?>
<!-- Generator: Adobe Illustrator 19.1.0, SVG Export Plug-In . SVG Version: 6.00 Build 0)  -->
<svg version="1.1" id="Layer_1" xmlns="http://www.w3.org/2000/svg" xmlns:xlink="http://www.w3.org/1999/xlink" x="0px" y="0px"
	 viewBox="70 -260 1100 1080" style="enable-background:new 70 -260 1100 1080;" xml:space="preserve">
<style type="text/css">
	.st0{fill:#EFEFEF;}
	.st1{fill:#666666;}
	.st2{fill:#FFFFFF;}
	.st3{fill:#D30000;}
</style>
<g id="Layer_1_1_">
</g>
<rect x="70" y="-260" class="st0" width="2200" height="1080"/>
<g>
	<g>
		<rect x="319.1" y="246.2" class="st1" width="603.4" height="243.7"/>
		<polygon class="st1" points="922.5,241.5 319.1,241.5 390.1,67.9 847.5,62.7 		"/>
		<g>
			<g>
				<polygon class="st2" points="846.8,172 785.2,146 794.8,168.5 609.8,168.5 609.8,175.5 794.8,175.5 785.2,198 				"/>
				<polygon class="st2" points="838,105.4 776.5,79.4 786,101.9 605.8,101.9 605.8,108.9 786,108.9 776.5,131.4 				"/>
			</g>
		</g>
		<g>
			<polygon class="st2" points="443.2,137.8 628.2,137.8 628.2,130.8 443.2,130.8 452.8,108.4 391.2,134.3 452.8,160.3 			"/>
			<polygon class="st2" points="632.2,197.4 452,197.4 461.5,174.9 400,200.9 461.5,226.9 452,204.4 632.2,204.4 			"/>
		</g>
		<path class="st2" d="M665.3,368.2h36.4l-8.5,20L748,365L693.2,342l8.5,20h-36.5c20.3-18.4,33.3-36.7,26.8-46.1
			c-2.2-3.2-6.1-4.8-11.6-4.8c-12.3,0-32.8,8.1-55.2,21.3c-0.4-0.1-0.9-0.1-1.3-0.1v-35.6l20,7l-23.1-42.3l-23.1,45.3l20-10v35.6
			c-0.4,0.1-0.9,0.1-1.4,0.1c-22.3-13.2-42.8-21.3-55.1-21.3c-5.5,0-9.4,1.6-11.6,4.8c-4.4,6.4-0.5,16.7,11.5,30.7
			c4.3,5,9.6,10.2,15.4,15.4h-36.5l8.5-20L493.6,365l54.7,23.1l-8.5-20h36.6c-5.8,5.2-11.1,10.5-15.4,15.4
			c-12,14-15.9,24.3-11.5,30.7c2.2,3.2,6.1,4.8,11.6,4.8c12.3,0,32.8-8.1,55.2-21.3c0.4,0.1,0.9,0.1,1.3,0.1v32.7l-20-7l23.1,45.3
			l23.1-45.3l-20,7v-32.7c0.5-0.1,0.9-0.1,1.4-0.1c22.3,13.2,42.8,21.3,55.1,21.3c5.5,0,9.4-1.6,11.6-4.8
			C698.5,404.8,685.6,386.6,665.3,368.2z M561.2,412.2c-3.1,0-5.2-0.7-6-1.8c-1.8-2.6,0.9-10.5,11-22.4c5.1-5.9,11.6-12.2,18.9-18.5
			c1.3,1.1,2.5,2.1,3.8,3.1c2.4,10,9,18.3,18.1,22.5C588.3,405.7,571.2,412.2,561.2,412.2z M588.5,357.8c-1.2,1-2.3,1.9-3.4,2.9
			c-7.3-6.3-13.7-12.6-18.8-18.6c-10.1-11.8-12.9-19.8-11-22.4c0.8-1.2,3-1.8,6-1.8c10,0,27.1,6.5,46,17.1
			C597.9,339.2,590.8,347.6,588.5,357.8z M680.4,317.9c3.1,0,5.2,0.6,6,1.8c3.2,4.7-7.4,21.1-29.9,40.8c-1.3-1.1-2.6-2.1-3.9-3.2
			c-2.4-9.9-9-18.2-18.1-22.3C653.4,324.4,670.4,317.9,680.4,317.9z M686.4,410.4c-0.8,1.2-2.9,1.8-6,1.8c-10,0-27.1-6.5-46-17.1
			c9.3-4.2,16.3-12.5,18.6-22.7c1.2-1,2.3-2,3.5-2.9C679.2,389.2,689.6,405.7,686.4,410.4z"/>
	</g>
	<g>
		<circle class="st3" cx="620.8" cy="-53.8" r="97.9"/>
		<g>
			<path class="st2" d="M601-88.7h42.6v8.6h-32.3v26.3h29.8v8.5h-29.8v35.8H601V-88.7z"/>
		</g>
	</g>
</g>
</svg>
