<?xml version="1.0" encoding="utf-8"?>
<!-- Generator: Adobe Illustrator 19.1.0, SVG Export Plug-In . SVG Version: 6.00 Build 0)  -->
<svg version="1.1" id="Layer_1" xmlns="http://www.w3.org/2000/svg" xmlns:xlink="http://www.w3.org/1999/xlink" x="0px" y="0px"
	 viewBox="70 -260 1100 1080" style="enable-background:new 70 -260 1100 1080;" xml:space="preserve">
<style type="text/css">
	.st0{fill:url(#SVGID_1_);}
	.st1{fill:#9CA1B3;}
	.st2{fill:url(#SVGID_2_);}
	.st3{fill:#FFFFFF;}
</style>
<g id="Layer_1_1_">
</g>
<g>
	
		<linearGradient id="SVGID_1_" gradientUnits="userSpaceOnUse" x1="332" y1="239.6156" x2="908" y2="239.6156" gradientTransform="matrix(1 0 0 -1 0 560)">
		<stop  offset="0" style="stop-color:#595C6E"/>
		<stop  offset="5.785039e-002" style="stop-color:#454858"/>
		<stop  offset="0.129" style="stop-color:#272B37"/>
		<stop  offset="0.2527" style="stop-color:#3F4157"/>
		<stop  offset="0.3548" style="stop-color:#586084"/>
		<stop  offset="0.4302" style="stop-color:#515878"/>
		<stop  offset="0.5667" style="stop-color:#3F4258"/>
		<stop  offset="0.5699" style="stop-color:#3F4157"/>
		<stop  offset="0.7849" style="stop-color:#272832"/>
		<stop  offset="0.9946" style="stop-color:#414554"/>
	</linearGradient>
	<path class="st0" d="M332,203.1v178.3v-1.9c10.5,33.4,134.2,60.2,285.6,60.2s279.9-26.7,290.4-60.2l0,0V201.1L332,203.1z"/>
	<g>
		<path class="st1" d="M908,203.1c0,45.6-133.7,81.5-287.5,81.5S333,247.5,333,203.1s133.7-81.5,287.5-81.5S908,157.5,908,203.1z"/>
		
			<linearGradient id="SVGID_2_" gradientUnits="userSpaceOnUse" x1="838.7068" y1="483.2668" x2="401.8123" y2="231.026" gradientTransform="matrix(1 0 0 -1 0 560)">
			<stop  offset="0" style="stop-color:#595C6E"/>
			<stop  offset="0.2659" style="stop-color:#454858"/>
			<stop  offset="0.3065" style="stop-color:#414554"/>
			<stop  offset="0.5269" style="stop-color:#FFEEEA"/>
			<stop  offset="0.6694" style="stop-color:#C1B7B9"/>
			<stop  offset="0.8933" style="stop-color:#666571"/>
			<stop  offset="0.9946" style="stop-color:#414554"/>
		</linearGradient>
		<path class="st2" d="M620.5,126.4c161.4,0,282.7,39.6,282.7,75.5s-121.3,75.5-282.7,75.5c-161.4,1.2-282.7-38.4-282.7-74.3
			S459,126.4,620.5,126.4 M620.5,120.4c-153.8,0-287.5,37.2-287.5,82.7s133.7,81.5,287.5,81.5S908,247.5,908,203.1
			S774.3,120.4,620.5,120.4L620.5,120.4z"/>
	</g>
	<g>
		<path class="st3" d="M538.3,158.2l79.3-24.4h1l83.1,24.4c1.9,1.1,1.9,3.3,0,3.3l-22.9,3.3c0,0,0,0-1,0l-37.3-10
			c-1,0-1.9,1.1-1.9,2.2v31.1c0,1.1-1,2.2-1.9,2.2h-31.5c-1,0-1.9-1.1-1.9-2.2v-31.1c0-1.1-1-2.2-1.9-2.2l-34.4,8.9c0,0,0,0-1,0
			l-26.7-2.2C537.4,161.5,536.4,158.2,538.3,158.2z"/>
		<path class="st3" d="M522.1,177l70.7,20l0,0l-78.3,22.2c-1,1.1-2.9,1.1-2.9,0l-20.1-4.4l0,0l36.3-10c0,0-1-1.1-1.9-1.1H397
			c-1,0-1.9,0-1.9-1.1v-11.1c0,0,1-1.1,1.9-1.1h129c1,0,1.9,0,1.9-1.1l-36.3-7.8l0,0l1.9-4.4C494.4,175.9,521.1,175.9,522.1,177z"/>
		<path class="st3" d="M719.8,177l-70.7,21.1l0,0l78.3,22.2c1,1.1,2.9,1.1,2.9,0l20.1-4.4l0,0l-36.3-10c0,0,1-1.1,1.9-1.1h129
			c1,0,1.9,0,1.9-1.1v-11.1c0,0-1-1.1-1.9-1.1H715c-1,0-1.9,0-1.9-1.1l36.3-7.8l0,0l-1.9-5.5C747.5,175.9,719.8,175.9,719.8,177z"/>
		<path class="st3" d="M538.3,232.5l79.3,24.4h1l83.1-24.4c1.9-1.1,1.9-3.3,0-3.3l-22.9-2.2c0,0,0,0-1,0l-38.2,8.9
			c-1,0-1.9-1.1-1.9-2.2v-31.1c0-1.1-1-2.2-1.9-2.2h-31.5c-1,0-1.9,1.1-1.9,2.2v31.1c0,1.1-1,2.2-1.9,2.2L566,227c0,0,0,0-1,0
			l-26.7,2.2C537.4,229.2,536.4,232.5,538.3,232.5z"/>
	</g>
</g>
</svg>
